<svg xmlns="http://www.w3.org/2000/svg" width="181" height="55"><path fill-rule="evenodd" fill="#ffffff" d="M178.122 46.284v6.206c0 .979.443 1.478 1.311 1.478.222 0 .444-.037.683-.111l.092.887a3.153 3.153 0 0 1-.997.147c-1.256 0-2.161-.85-2.161-2.456v-6.151h-1.606v-.812h1.606v-2.475h1.072v2.475h2.29v.812h-2.29zm-10.097-20.161h9.912v9.743h-9.912v-9.743zm2.261 19.091c2.198 0 3.454 1.108 3.454 2.881v4.247c0 1.053.129 1.57.554 2.291h-1.071c-.388-.481-.591-1.145-.591-1.977-.222.628-.647 1.164-1.274 1.588-.611.426-1.275.647-1.958.647-1.847 0-3.048-1.145-3.048-2.789 0-1.644 1.293-2.641 3.048-2.918l3.269-.535v-.444c0-1.329-.887-2.031-2.383-2.031-1.551 0-2.456.776-2.456 1.717 0 .093.018.185.037.278l-.868.295a1.811 1.811 0 0 1-.13-.702c0-.72.315-1.33.961-1.81.647-.498 1.477-.738 2.456-.738zm-.701 4.875c-1.386.24-2.161.961-2.161 1.995 0 1.053.812 1.81 2.068 1.81.978 0 1.736-.388 2.309-1.182a4.507 4.507 0 0 0 .868-2.678v-.462l-3.084.517zm-15.118-14.223l-7.07-10.542h-4.227v10.542h-9.694V.967h16.545c2.697 0 4.956.364 6.852 1.019 1.894.653 3.352 1.599 4.518 2.762 2.042 1.963 3.134 4.726 3.134 8.143v.073c0 2.689-.656 4.944-1.967 6.688-1.313 1.746-3.062 3.127-5.249 4.072l8.383 12.142h-11.225zm.364-22.32c0-1.382-.436-2.4-1.384-3.127-.948-.654-2.187-1.018-3.864-1.018h-6.341v8.288h6.341c1.677 0 2.916-.363 3.864-1.09.875-.727 1.384-1.745 1.384-2.982v-.071zm-21.217 33.662c.425-1.127 1.46-1.994 2.642-1.994.295 0 .553.036.757.092l-.185.924a2.633 2.633 0 0 0-.683-.093c-.684 0-1.274.351-1.774 1.034-.498.684-.757 1.514-.757 2.457v5.005h-1.071v-9.161h1.071v1.736zM102.061.967h28.135v8.216H111.61v5.307h16.835v7.635H111.61v5.525h18.804v8.216h-28.353V.967zm.877 46.296a3.766 3.766 0 0 1 3.361-2.049c1.995 0 3.196 1.182 3.196 3.195v6.224h-1.071V48.52c0-1.552-.961-2.383-2.42-2.383-.794 0-1.515.333-2.142.979-.61.646-.924 1.459-.924 2.438v5.079h-1.071V41.704h1.071v5.559zM88.286 35.866h-9.694V9.474H68.096V.967h30.685v8.507H88.286v26.392zm-19.149 7.131v2.475h2.291v.812h-2.291v6.206c0 .979.443 1.478 1.312 1.478.222 0 .443-.037.683-.111l.092.887a3.162 3.162 0 0 1-.997.147c-1.256 0-2.161-.85-2.161-2.456v-6.151h-1.607v-.812h1.607v-2.475h1.071zM41.274 16.745v19.121h-9.548V.967h9.111l14.431 18.468V.967h9.549v34.899h-8.528L41.274 16.745zm-8.842 31.497c-.646-1.348-1.791-2.068-3.176-2.068-1.016 0-1.866.351-2.549 1.071-.683.702-1.016 1.644-1.016 2.807 0 1.164.333 2.087.997 2.808.666.72 1.515 1.071 2.568 1.071 1.533 0 2.475-.813 3.214-2.198l.794.517c-.813 1.644-2.272 2.641-4.045 2.641-1.349 0-2.457-.461-3.325-1.367-.868-.904-1.311-2.068-1.311-3.472 0-1.385.443-2.53 1.348-3.453.906-.924 2.013-1.385 3.288-1.385 1.939 0 3.343.96 4.026 2.511l-.813.517zM.093 26.341V.967h28.134v8.216H9.642v5.307h16.836v7.635H9.642v5.525h18.804v8.216H9.642L.093 26.341zm9.554 16.656h1.071v2.475h2.291v.812h-2.291v6.206c0 .979.444 1.478 1.312 1.478.222 0 .444-.037.683-.111l.092.887a3.157 3.157 0 0 1-.997.147c-1.256 0-2.161-.85-2.161-2.456v-6.151H8.041v-.812h1.606v-2.475zm8.867 2.217c1.349 0 2.402.424 3.177 1.274.794.849 1.182 1.957 1.182 3.306v.351h-7.812c.037 1.089.369 1.994.997 2.733.628.72 1.441 1.09 2.456 1.09 1.515 0 2.624-.739 3.325-2.217l.776.462c-.869 1.791-2.254 2.678-4.156 2.678-1.255 0-2.309-.461-3.176-1.367-.868-.923-1.293-2.086-1.293-3.472 0-1.385.443-2.549 1.311-3.453.868-.924 1.939-1.385 3.213-1.385zm3.196 4.007c-.019-.979-.333-1.736-.96-2.271a3.332 3.332 0 0 0-2.236-.813c-.867 0-1.643.295-2.29.886a3.624 3.624 0 0 0-1.163 2.198h6.649zm14.731-1.958a3.765 3.765 0 0 1 3.361-2.049c1.995 0 3.196 1.182 3.196 3.195v6.224h-1.071V48.52c0-1.552-.961-2.383-2.42-2.383-.794 0-1.514.333-2.142.979-.61.646-.924 1.459-.924 2.438v5.079H35.37V41.704h1.071v5.559zm16.439 6.261l2.216-8.052h1.219l2.216 8.052 2.217-8.052h1.071l-2.659 9.161h-1.238l-2.216-8.053-2.217 8.053h-1.237l-2.659-9.161h1.071l2.216 8.052zm11.856-9.788h-1.367v-1.478h1.367v1.478zm-.148 10.897h-1.071v-9.161h1.071v9.161zm9.869-7.37a3.765 3.765 0 0 1 3.361-2.049c1.995 0 3.196 1.182 3.196 3.195v6.224h-1.072V48.52c0-1.552-.96-2.383-2.419-2.383-.794 0-1.515.333-2.142.979-.61.646-.924 1.459-.924 2.438v5.079h-1.071V41.704h1.071v5.559zm17.029 1.921l3.27-.535v-.444c0-1.329-.887-2.031-2.383-2.031-1.551 0-2.456.776-2.456 1.717 0 .093.018.185.037.278l-.868.295a1.83 1.83 0 0 1-.13-.702c0-.72.315-1.33.961-1.81.647-.498 1.477-.738 2.456-.738 2.198 0 3.454 1.108 3.454 2.881v4.247c0 1.053.129 1.57.554 2.291h-1.072c-.388-.481-.591-1.145-.591-1.977-.221.628-.646 1.164-1.274 1.588-.609.426-1.273.647-1.958.647-1.846 0-3.047-1.145-3.047-2.789 0-1.644 1.293-2.641 3.047-2.918zm.093 4.71c.979 0 1.736-.388 2.309-1.182a4.507 4.507 0 0 0 .868-2.678v-.462l-3.085.517c-1.385.24-2.161.961-2.161 1.995 0 1.053.813 1.81 2.069 1.81zm24.669-8.68c1.348 0 2.401.424 3.176 1.274.795.849 1.183 1.957 1.183 3.306v.351h-7.812c.036 1.089.369 1.994.997 2.733.627.72 1.44 1.09 2.456 1.09 1.515 0 2.623-.739 3.324-2.217l.776.462c-.868 1.791-2.253 2.678-4.156 2.678-1.255 0-2.308-.461-3.175-1.367-.869-.923-1.293-2.086-1.293-3.472 0-1.385.442-2.549 1.311-3.453.868-.924 1.939-1.385 3.213-1.385zm3.196 4.007c-.02-.979-.333-1.736-.961-2.271a3.33 3.33 0 0 0-2.235-.813c-.867 0-1.644.295-2.29.886a3.62 3.62 0 0 0-1.163 2.198h6.649zm5.928-.037l3.27-.535v-.444c0-1.329-.887-2.031-2.383-2.031-1.551 0-2.456.776-2.456 1.717 0 .093.018.185.037.278l-.868.295a1.83 1.83 0 0 1-.129-.702c0-.72.314-1.33.96-1.81.647-.498 1.477-.738 2.456-.738 2.198 0 3.454 1.108 3.454 2.881v4.247c0 1.053.129 1.57.554 2.291h-1.071c-.389-.481-.592-1.145-.592-1.977-.221.628-.646 1.164-1.274 1.588-.609.426-1.274.647-1.958.647-1.846 0-3.047-1.145-3.047-2.789 0-1.644 1.293-2.641 3.047-2.918zm.093 4.71c.979 0 1.736-.388 2.309-1.182a4.507 4.507 0 0 0 .868-2.678v-.462l-3.085.517c-1.384.24-2.161.961-2.161 1.995 0 1.053.813 1.81 2.069 1.81zm14.474-10.897h1.071v2.475h2.291v.812h-2.291v6.206c0 .979.444 1.478 1.312 1.478.222 0 .443-.037.683-.111l.092.887a3.157 3.157 0 0 1-.997.147c-1.256 0-2.161-.85-2.161-2.456v-6.151h-1.607v-.812h1.607v-2.475zm6.391 4.211c.684-1.201 2.013-1.994 3.546-1.994 1.201 0 2.179.461 2.974 1.403.794.923 1.2 2.068 1.2 3.435 0 1.386-.406 2.53-1.237 3.454-.831.924-1.884 1.385-3.158 1.385a3.709 3.709 0 0 1-2.013-.591c-.61-.406-1.053-.886-1.312-1.44v1.773h-1.071V41.704h1.071v5.504zm.813 5.67c.628.72 1.441 1.09 2.437 1.09.998 0 1.811-.37 2.42-1.09.628-.72.942-1.662.942-2.826 0-1.163-.314-2.105-.942-2.825-.628-.721-1.44-1.09-2.42-1.09-.978 0-1.791.369-2.419 1.108-.628.739-.942 1.68-.942 2.807 0 1.146.314 2.087.924 2.826zm13.132-7.664c1.348 0 2.402.424 3.177 1.274.794.849 1.181 1.957 1.181 3.306v.351h-7.811c.037 1.089.369 1.994.997 2.733.628.72 1.44 1.09 2.456 1.09 1.515 0 2.623-.739 3.324-2.217l.776.462c-.868 1.791-2.253 2.678-4.155 2.678-1.256 0-2.309-.461-3.177-1.367-.867-.923-1.292-2.086-1.292-3.472 0-1.385.442-2.549 1.311-3.453.867-.924 1.939-1.385 3.213-1.385zm3.196 4.007c-.019-.979-.333-1.736-.961-2.271-.628-.536-1.367-.813-2.235-.813-.868 0-1.643.295-2.29.886a3.624 3.624 0 0 0-1.163 2.198h6.649z"/></svg>